
<svg xmlns="http://www.w3.org/2000/svg" version="1.1" viewBox="213.6 523.2 811.2 194.4" style="max-height: 500px" width="811.2" height="194.4">
<path transform="translate(399,531)" fill="#000000" d="M0 0 C2.51666056 2.12948202 3.71851452 3.6855159 4.4140625 6.93359375 C4.68553004 10.71270763 4.18489418 12.68303855 2.25 16 C-1.4288829 18.26392794 -2.3150172 18.08071791 -6.453125 17.75 C-13.85220666 17.63386591 -18.75961278 20.27550012 -25 24 C-26.51400391 24.82951172 -26.51400391 24.82951172 -28.05859375 25.67578125 C-33.44887222 28.78968714 -37.02750663 31.24865933 -39.21875 37.203125 C-40.47122694 40.08382195 -42.09977977 41.62480892 -44.99382019 42.83097839 C-47.53165082 44.3097984 -47.85465114 45.33480236 -48.75512695 48.0949707 C-49.03834305 48.93957352 -49.32155914 49.78417633 -49.61335754 50.65437317 C-50.04644478 52.02622017 -50.04644478 52.02622017 -50.48828125 53.42578125 C-50.79573776 54.36552292 -51.10319427 55.30526459 -51.41996765 56.27348328 C-52.06669148 58.26255321 -52.7058933 60.25408219 -53.33813477 62.24780273 C-54.30741573 65.29650831 -55.30506241 68.33481956 -56.30664062 71.37304688 C-56.93140868 73.30673641 -57.5545113 75.24096499 -58.17578125 77.17578125 C-58.47462723 78.08427322 -58.77347321 78.9927652 -59.08137512 79.92878723 C-59.48255806 81.20987617 -59.48255806 81.20987617 -59.8918457 82.5168457 C-60.13070999 83.26360062 -60.36957428 84.01035553 -60.61567688 84.77973938 C-61.81883951 91.73049116 -57.1091737 98.69808232 -54.25 104.75 C-53.7240625 105.91144531 -53.198125 107.07289063 -52.65625 108.26953125 C-52.13546875 109.37167969 -51.6146875 110.47382812 -51.078125 111.609375 C-50.60793945 112.61967773 -50.13775391 113.62998047 -49.65332031 114.67089844 C-48.18258266 117.24187709 -48.18258266 117.24187709 -45.30761719 117.83691406 C-44.54610352 117.89073242 -43.78458984 117.94455078 -43 118 C-42.79761719 117.46890625 -42.59523438 116.9378125 -42.38671875 116.390625 C-40.39547767 112.95783757 -37.65535732 110.49099987 -34.8125 107.75 C-30.51795056 103.54019979 -26.36308311 99.31169681 -22.5 94.6953125 C-20.95994765 92.95473251 -19.30198497 91.47565569 -17.5625 89.9375 C-14.37657823 86.28534577 -14.74347593 84.70294134 -15 80 C-13.35109058 76.37239927 -11.52481343 73.91347015 -8 72 C-3.89584037 71.28623311 -2.26629423 71.84712739 1.375 73.9375 C3.90160629 76.27744408 4.48775483 78.08150409 4.6875 81.5 C4.43196079 84.90718941 3.96844235 86.04733647 2 89 C-1 91 -1 91 -4.74609375 91.21484375 C-10.05397215 91.77656894 -12.59149411 94.75971396 -16.0625 98.5625 C-16.67174316 99.20074707 -17.28098633 99.83899414 -17.90869141 100.49658203 C-21.51634977 104.30149644 -25.04858785 108.17956852 -28.40234375 112.2109375 C-30.27753927 114.31078969 -32.34653499 116.11631326 -34.4375 118 C-37.19390227 120.62506926 -37.19390227 120.62506926 -38.3984375 124.10546875 C-38.3172211 126.07312065 -38.16088073 128.03725511 -38 130 C-39.2517325 132.87898475 -40.29669128 134.44740029 -42.75 136.375 C-46.18832218 137.33008949 -48.56397688 136.90421661 -52 136 C-54.9375 133.875 -54.9375 133.875 -57 131 C-57.36485566 127.59468054 -57.35941285 125.03262778 -56.23046875 121.7890625 C-55.87581645 117.49716858 -57.90382184 114.56587376 -59.9375 110.875 C-60.70187089 109.45855311 -61.46121518 108.03937899 -62.21484375 106.6171875 C-62.55636475 105.99440918 -62.89788574 105.37163086 -63.24975586 104.72998047 C-64 103 -64 103 -64 100 C-64.66 100 -65.32 100 -66 100 C-66.23332031 101.20011719 -66.46664062 102.40023437 -66.70703125 103.63671875 C-68.44159151 111.45525297 -71.32348728 118.95019031 -73.98632812 126.49023438 C-74.58670898 128.23723633 -74.58670898 128.23723633 -75.19921875 130.01953125 C-75.56877686 131.07245361 -75.93833496 132.12537598 -76.3190918 133.21020508 C-77.004587 136.01879369 -77.05926013 137.35012574 -76 140 C-75.67 140.33 -75.34 140.66 -75 141 C-74.39283262 144.71986092 -73.98316836 148.46243796 -76.12890625 151.70703125 C-78.62686626 153.97019606 -80.75753213 154.96041341 -84.0625 155.5 C-87.43741013 154.92554721 -89.35971803 154.1876622 -92 152 C-92.63671875 149.38671875 -92.63671875 149.38671875 -93 147 C-93.78503906 146.93941406 -94.57007813 146.87882813 -95.37890625 146.81640625 C-96.42949219 146.73261719 -97.48007812 146.64882813 -98.5625 146.5625 C-99.65949219 146.47742188 -100.75648438 146.39234375 -101.88671875 146.3046875 C-105 146 -105 146 -108.875 145.1875 C-113.05588359 144.93664698 -114.63955865 146.64054118 -118 149 C-120.95020951 149.29502095 -123.11695425 149.29587738 -125.92724609 148.35424805 C-128.67001766 147.88548933 -129.68358752 148.59119942 -132.0390625 150.01953125 C-133.15667969 150.68758789 -133.15667969 150.68758789 -134.296875 151.36914062 C-135.06515625 151.84544922 -135.8334375 152.32175781 -136.625 152.8125 C-137.40101563 153.27720703 -138.17703125 153.74191406 -138.9765625 154.22070312 C-144.94710177 157.54157724 -144.94710177 157.54157724 -147.875 163.4375 C-149 167 -149 167 -150.625 168.9375 C-154.10384029 170.49382329 -157.30969213 170.77613618 -161 170 C-164.34664567 167.57902228 -165.69586639 165.91240083 -167 162 C-167 158.34076304 -166.24243223 156.86103423 -164 154 C-161.57454741 151.57454741 -160.45298164 151.03774847 -157 150.75 C-154 151 -154 151 -152.09228516 151.64453125 C-147.80550656 152.37283342 -143.96806451 149.08612253 -140.375 147 C-139.50359375 146.52949219 -138.6321875 146.05898438 -137.734375 145.57421875 C-132.42476891 142.55297768 -132.42476891 142.55297768 -129.55078125 137.27734375 C-129.27814453 135.65505859 -129.27814453 135.65505859 -129 134 C-126.19914569 130.87904806 -124.66303869 130.09471981 -120.5 129.5 C-116.42476623 130.08217625 -114.80739889 131.02746 -112 134 C-111.3671875 136.140625 -111.3671875 136.140625 -111 138 C-107.979458 138.27761225 -104.96189979 138.52266855 -101.9375 138.75 C-101.08994141 138.83121094 -100.24238281 138.91242188 -99.36914062 138.99609375 C-98.53447266 139.05410156 -97.69980469 139.11210938 -96.83984375 139.171875 C-95.70083618 139.2661377 -95.70083618 139.2661377 -94.53881836 139.36230469 C-90.73650898 138.81969221 -87.82159381 137.56128451 -85 135 C-83.22681785 131.95837519 -82.23727763 128.77300385 -81.21875 125.4140625 C-80.91553833 124.4795224 -80.61232666 123.5449823 -80.29992676 122.5821228 C-79.66620306 120.61073217 -79.04497649 118.6352857 -78.43554688 116.65625 C-77.50243092 113.63287639 -76.52824111 110.62520246 -75.546875 107.6171875 C-74.93503182 105.69609684 -74.32557525 103.7742441 -73.71875 101.8515625 C-73.42931519 100.95450592 -73.13988037 100.05744934 -72.8416748 99.13320923 C-70.62924063 91.85895453 -71.09687624 87.32863809 -74.50390625 80.453125 C-74.99697266 79.44378906 -75.49003906 78.43445313 -75.99804688 77.39453125 C-76.77245117 75.83798828 -76.77245117 75.83798828 -77.5625 74.25 C-78.58802049 72.17354339 -79.6103298 70.09549671 -80.62890625 68.015625 C-81.08338135 67.10071289 -81.53785645 66.18580078 -82.00610352 65.24316406 C-83 63 -83 63 -83 61 C-86.54723241 60.50771953 -87.75889137 60.81997604 -90.67895508 63.00024414 C-94.46132489 66.70118258 -94.46132489 66.70118258 -98.20385742 70.44213867 C-99.80422872 72.05416846 -101.43387984 73.63163898 -103.06835938 75.20898438 C-104.09569123 76.23243009 -105.12114742 77.25776275 -106.14453125 78.28515625 C-107.07628174 79.21207275 -108.00803223 80.13898926 -108.96801758 81.09399414 C-111.47555094 84.68010127 -111.24018765 86.71597155 -111 91 C-112.79562405 93.75329021 -114.05254922 95.52627461 -117 97 C-120.86590463 97.36470798 -123.27899319 97.37688992 -126.75 95.5625 C-129.05339936 92.93918407 -129.32552713 92.04916777 -130.07421875 88.8125 C-132.00310858 82.77696113 -136.03860493 79.99722211 -141.0625 76.4375 C-141.87138672 75.81037109 -142.68027344 75.18324219 -143.51367188 74.53710938 C-148.75829539 70.71715722 -152.35456111 69.31052546 -158.86279297 69.98120117 C-161 70 -161 70 -164.0625 67.875 C-166.2362509 64.64943415 -167 62.88664747 -167 59 C-165.47126129 55.02527937 -164.57219503 53.38146335 -161 51 C-154.10821053 50.22189474 -154.10821053 50.22189474 -150.0625 53.0625 C-148 56 -148 56 -147.74609375 59.3671875 C-146.80086442 63.96961304 -144.69245604 65.53668043 -141 68.0625 C-140.41275146 68.48442627 -139.82550293 68.90635254 -139.22045898 69.34106445 C-138.04000376 70.18410851 -136.85311971 71.01823067 -135.65966797 71.84277344 C-134.1971225 72.8625536 -132.76924649 73.93167497 -131.34765625 75.0078125 C-126.97383112 78.28393586 -126.97383112 78.28393586 -121.6875 78.9375 C-120.3571875 78.4734375 -120.3571875 78.4734375 -119 78 C-118.38737305 77.90734863 -117.77474609 77.81469727 -117.14355469 77.71923828 C-112.48299011 76.15545431 -109.14166407 71.73991715 -105.72607422 68.33691406 C-104.25780726 66.88273237 -102.76504218 65.45732825 -101.26953125 64.03125 C-100.34011719 63.11085938 -99.41070312 62.19046875 -98.453125 61.2421875 C-97.59879883 60.4054248 -96.74447266 59.56866211 -95.86425781 58.70654297 C-93.48938018 55.25867845 -93.80440383 53.10692695 -94 49 C-90.92307692 43.46153846 -90.92307692 43.46153846 -88 42 C-83.56149484 41.48786479 -81.46518652 41.72934603 -77.5625 44 C-74.61653462 47.44893508 -74.61653462 47.44893508 -74.5625 51.0625 C-75 55 -75 55 -75.64428711 56.96191406 C-76.12560057 59.71963869 -75.35821104 61.05458585 -74.12890625 63.546875 C-73.71962891 64.39121094 -73.31035156 65.23554687 -72.88867188 66.10546875 C-72.45103516 66.97816406 -72.01339844 67.85085938 -71.5625 68.75 C-71.12873047 69.63816406 -70.69496094 70.52632812 -70.24804688 71.44140625 C-69.17580868 73.63301399 -68.09289767 75.8186409 -67 78 C-65.25910317 73.09338668 -63.53221588 68.182152 -61.81811523 63.26611328 C-61.23307443 61.59452177 -60.64423082 59.92425614 -60.05151367 58.25537109 C-59.20007561 55.8559287 -58.36243872 53.4520465 -57.52734375 51.046875 C-57.12587379 49.9294693 -57.12587379 49.9294693 -56.71629333 48.78948975 C-55.44069752 45.07177488 -54.76914531 42.73802424 -56 39 C-56.33 38.34 -56.66 37.68 -57 37 C-57.68288206 30.05736576 -57.68288206 30.05736576 -55.0625 26 C-50.90567227 23.28533699 -47.80846738 23.59479207 -43 24 C-39.35200733 24 -37.88298808 22.98319974 -34.74609375 21.15625 C-33.72708984 20.56972656 -32.70808594 19.98320313 -31.65820312 19.37890625 C-30.06395508 18.44884766 -30.06395508 18.44884766 -28.4375 17.5 C-26.33424077 16.27744086 -24.22887592 15.05849463 -22.12109375 13.84375 C-21.1870874 13.29912109 -20.25308105 12.75449219 -19.29077148 12.19335938 C-17 11 -17 11 -15 11 C-14.9175 9.9275 -14.835 8.855 -14.75 7.75 C-13.9371841 3.68592048 -13.22905115 2.46927441 -10 0 C-6.16652698 -1.27782434 -3.91272241 -0.96101954 0 0 Z M-6 6 C-6.99 7.485 -6.99 7.485 -8 9 C-7.67 9.66 -7.34 10.32 -7 11 C-5.68 11 -4.36 11 -3 11 C-3.33 9.35 -3.66 7.7 -4 6 C-4.66 6 -5.32 6 -6 6 Z M-86 49 C-86.33 49.99 -86.66 50.98 -87 52 C-85.02 52.99 -85.02 52.99 -83 54 C-82.67 52.35 -82.34 50.7 -82 49 C-83.32 49 -84.64 49 -86 49 Z M-158 58 C-158.99 59.485 -158.99 59.485 -160 61 C-159.67 61.66 -159.34 62.32 -159 63 C-157.68 63 -156.36 63 -155 63 C-154.67 62.01 -154.34 61.02 -154 60 C-155.32 59.34 -156.64 58.68 -158 58 Z M-6 79 C-6.66 80.32 -7.32 81.64 -8 83 C-5.525 83.495 -5.525 83.495 -3 84 C-3.33 82.35 -3.66 80.7 -4 79 C-4.66 79 -5.32 79 -6 79 Z M-49 125 C-49.33 126.32 -49.66 127.64 -50 129 C-49.01 129.33 -48.02 129.66 -47 130 C-46.34 129.67 -45.68 129.34 -45 129 C-45.33 127.68 -45.66 126.36 -46 125 C-46.99 125 -47.98 125 -49 125 Z M-85 143 C-85.99 144.485 -85.99 144.485 -87 146 C-86.67 146.66 -86.34 147.32 -86 148 C-84.68 147.67 -83.36 147.34 -82 147 C-82.33 145.68 -82.66 144.36 -83 143 C-83.66 143 -84.32 143 -85 143 Z M-158 158 C-158.99 159.485 -158.99 159.485 -160 161 C-159.67 161.66 -159.34 162.32 -159 163 C-157.68 163 -156.36 163 -155 163 C-154.67 162.01 -154.34 161.02 -154 160 C-155.32 159.34 -156.64 158.68 -158 158 Z"/>
<path transform="translate(957.125,605.625)" fill="#000000" d="M0 0 C3.17420799 2.62217182 4.85699515 4.82331146 6.875 8.375 C7.49375 7.79492188 7.49375 7.79492188 8.125 7.203125 C16.30512082 -0.17359109 22.14480778 -2.30148594 33.37109375 -1.93359375 C38.46806056 -1.48469701 41.65618272 -0.95744943 45.32421875 2.8984375 C54.11630244 14.83954831 51.1037591 34.27692867 51 48.1875 C50.98995133 50.53710557 50.98082882 52.88671528 50.97265625 55.23632812 C50.95078956 60.94932262 50.91636313 66.66211476 50.875 72.375 C44.935 72.375 38.995 72.375 32.875 72.375 C32.86041748 70.76536377 32.84583496 69.15572754 32.83081055 67.49731445 C32.77282921 61.52410694 32.69559541 55.55127644 32.61254883 49.57836914 C32.57929889 46.99347046 32.55126723 44.40849916 32.52856445 41.82348633 C32.49502073 38.10726991 32.44270272 34.39171899 32.38671875 30.67578125 C32.38032883 29.52040359 32.3739389 28.36502594 32.36735535 27.17463684 C32.34756119 26.09389389 32.32776703 25.01315094 32.30737305 23.8996582 C32.29626999 22.95145706 32.28516693 22.00325592 32.27372742 21.02632141 C31.79913357 17.87052934 30.71857998 15.95824487 28.875 13.375 C27.13533623 12.1889479 27.13533623 12.1889479 24.875 12.375 C19.16692311 14.13931468 16.33212485 16.33747522 12.875 21.375 C10.5106497 26.79689694 10.53136922 31.99176798 10.4609375 37.8046875 C10.44157135 38.79501984 10.4222052 39.78535217 10.4022522 40.80569458 C10.34270447 43.9537101 10.2961703 47.10176268 10.25 50.25 C10.2117974 52.39064052 10.17274435 54.53126604 10.1328125 56.671875 C10.03702327 61.9061275 9.95290072 67.14045194 9.875 72.375 C3.935 72.375 -2.005 72.375 -8.125 72.375 C-8.13958252 70.76536377 -8.15416504 69.15572754 -8.16918945 67.49731445 C-8.22717079 61.52410694 -8.30440459 55.55127644 -8.38745117 49.57836914 C-8.42070111 46.99347046 -8.44873277 44.40849916 -8.47143555 41.82348633 C-8.50497927 38.10726991 -8.55729728 34.39171899 -8.61328125 30.67578125 C-8.61967117 29.52040359 -8.6260611 28.36502594 -8.63264465 27.17463684 C-8.66233589 25.55352242 -8.66233589 25.55352242 -8.69262695 23.8996582 C-8.70928154 22.47735649 -8.70928154 22.47735649 -8.72627258 21.02632141 C-9.20086643 17.87052934 -10.28142002 15.95824487 -12.125 13.375 C-14.966354 11.75136914 -16.37498748 12.4431784 -19.5625 13.3125 C-24.01870181 15.4067236 -26.15868336 18.98576885 -28.125 23.375 C-30.08174411 29.07699923 -30.46047764 34.24181973 -30.5390625 40.24609375 C-30.55842865 41.168423 -30.5777948 42.09075226 -30.5977478 43.04103088 C-30.6571612 45.96476211 -30.70377509 48.88853353 -30.75 51.8125 C-30.78821502 53.8040529 -30.82726877 55.7955899 -30.8671875 57.78710938 C-30.96283104 62.64960923 -31.04700221 67.51218638 -31.125 72.375 C-36.735 72.375 -42.345 72.375 -48.125 72.375 C-48.17398438 69.91289063 -48.22296875 67.45078125 -48.2734375 64.9140625 C-48.32784102 62.46121434 -48.38499134 60.00844393 -48.44238281 57.55566406 C-48.48006633 55.88417646 -48.51500955 54.21262426 -48.546875 52.54101562 C-48.7210051 43.50801694 -49.07277849 34.53841385 -50.03125 25.55078125 C-50.1438063 24.45783249 -50.1438063 24.45783249 -50.25863647 23.34280396 C-50.87574067 18.03809181 -52.22127943 13.33659652 -54.3203125 8.44140625 C-55.125 6.375 -55.125 6.375 -55.125 3.375 C-53.5697088 2.67134398 -52.00535173 1.98770622 -50.4375 1.3125 C-49.56738281 0.92964844 -48.69726562 0.54679688 -47.80078125 0.15234375 C-44.68214072 -0.75365547 -43.14297077 -0.83218831 -40.125 0.375 C-38.54296875 2.66015625 -38.54296875 2.66015625 -37.3125 5.4375 C-36.89355469 6.35660156 -36.47460938 7.27570312 -36.04296875 8.22265625 C-35.74003906 8.93292969 -35.43710937 9.64320313 -35.125 10.375 C-34.403125 9.6325 -33.68125 8.89 -32.9375 8.125 C-24.24614549 -0.3732133 -12.06722583 -6.24256921 0 0 Z"/>
<path transform="translate(767,572)" fill="#000000" d="M0 0 C0.33 12.87 0.66 25.74 1 39 C3.31 37.35 5.62 35.7 8 34 C15.04572689 30.91223124 25.02789796 30.53761705 32.45703125 32.72265625 C38.53372265 35.99268408 41.34113927 40.97716664 43.37368774 47.28341675 C44.57986575 52.51512496 44.36315581 57.78695214 44.29296875 63.12890625 C44.28872391 64.35915024 44.28447906 65.58939423 44.28010559 66.85691833 C44.26340766 70.75900816 44.22577075 74.66056812 44.1875 78.5625 C44.17073803 81.21939348 44.15875539 83.87628198 44.14648438 86.53320312 C44.11353306 93.02233739 44.06181132 99.51107907 44 106 C38.06 106 32.12 106 26 106 C25.98541748 104.39036377 25.97083496 102.78072754 25.95581055 101.12231445 C25.89782921 95.14910694 25.82059541 89.17627644 25.73754883 83.20336914 C25.70429889 80.61847046 25.67626723 78.03349916 25.65356445 75.44848633 C25.62002073 71.73226991 25.56770272 68.01671899 25.51171875 64.30078125 C25.50532883 63.14540359 25.4989389 61.99002594 25.49235535 60.79963684 C25.47256119 59.71889389 25.45276703 58.63815094 25.43237305 57.5246582 C25.41571846 56.10235649 25.41571846 56.10235649 25.39872742 54.65132141 C24.92265747 51.48571408 23.87163251 49.57800333 22 47 C18.79144397 45.53323153 16.34580705 45.97882447 13.0625 46.9375 C8.22673369 48.94859374 5.33675924 52.37857487 3 57 C1.21662757 63.01183798 0.67033199 68.4993626 0.5859375 74.75 C0.56657135 75.64871826 0.5472052 76.54743652 0.5272522 77.47338867 C0.46795392 80.31549896 0.42127192 83.15765085 0.375 86 C0.33677433 87.93881876 0.29772 89.87762138 0.2578125 91.81640625 C0.1622939 96.5441381 0.0780814 101.27194932 0 106 C-5.61 106 -11.22 106 -17 106 C-17 71.68 -17 37.36 -17 2 C-5 0 -5 0 0 0 Z"/>
<path transform="translate(456,579)" fill="#000000" d="M0 0 C48.82889785 0 48.82889785 0 58.34375 9.06640625 C64.90878679 16.73077703 65.62614497 25.25862927 65 35 C63.82308084 43.10897302 60.12580452 48.63168744 54 54 C51.43133605 55.72383721 48.91580881 56.97867314 46 58 C44.4840625 58.53947266 44.4840625 58.53947266 42.9375 59.08984375 C38.04078217 60.4569013 33.10485403 60.21391098 28.0625 60.125 C24.741875 60.08375 21.42125 60.0425 18 60 C18 72.87 18 85.74 18 99 C12.06 99 6.12 99 0 99 C0 66.33 0 33.66 0 0 Z M18 13 C18 24.22 18 35.44 18 47 C30.04914984 47.33361511 30.04914984 47.33361511 40.8125 43.4375 C44.41417858 39.42420102 45.87649942 35.0035341 46.09765625 29.625 C45.74163912 24.48446004 44.53369909 20.89612977 41 17 C34.05361745 11.25312166 27.22153537 13 18 13 Z"/>
<path transform="translate(592,607)" fill="#000000" d="M0 0 C2.15980055 2.15980055 1.18683428 7.190456 1.2109375 10.1953125 C1.23905982 12.12891393 1.26772446 14.06250754 1.296875 15.99609375 C1.33773753 19.03889286 1.37461809 22.08155424 1.40136719 25.12451172 C1.46300641 46.21206808 1.46300641 46.21206808 8 66 C8 66.66 8 67.32 8 68 C6.09209968 68.89395329 4.17326194 69.76459334 2.25 70.625 C1.18265625 71.11226562 0.1153125 71.59953125 -0.984375 72.1015625 C-4 73 -4 73 -6.25390625 72.39453125 C-8.28804433 70.76995117 -9.11042892 69.42326396 -10.1875 67.0625 C-10.51105469 66.37285156 -10.83460938 65.68320312 -11.16796875 64.97265625 C-11.85446708 63.34504283 -12.44139411 61.67581767 -13 60 C-13.76183594 60.92232422 -13.76183594 60.92232422 -14.5390625 61.86328125 C-15.22742188 62.67152344 -15.91578125 63.47976563 -16.625 64.3125 C-17.29789063 65.11300781 -17.97078125 65.91351562 -18.6640625 66.73828125 C-24.13215504 72.03263841 -29.63351203 72.55218513 -36.88037109 72.47827148 C-43.09356556 72.25652447 -48.08717577 71.00512147 -53 67 C-62.02134189 57.22848256 -63.40512201 43.77784814 -63 31 C-61.82981166 20.43422174 -57.99131411 11.50661669 -50.25 4.125 C-36.305717 -6.85904415 -16.26807434 -4.64458335 0 0 Z M-38.75 14 C-45.50716865 23.0095582 -44.9016431 35.29596061 -43.6484375 46.00390625 C-42.72295155 51.26662718 -41.63122638 55.93260785 -37.25 59.375 C-33.6524085 60.37433097 -31.5945855 60.0966532 -28 59 C-20.81376754 53.34723137 -17.83655262 45.11773369 -16.40234375 36.34375 C-15.82726726 31.23571768 -15.8914754 26.13351283 -15.9375 21 C-15.94201172 20.03449219 -15.94652344 19.06898438 -15.95117188 18.07421875 C-15.96284583 15.71607911 -15.97921979 13.35807398 -16 11 C-24.81284907 7.89758048 -31.04353164 8.39529574 -38.75 14 Z"/>
<path transform="translate(860.9375,603.6875)" fill="#000000" d="M0 0 C1.38203613 0.00302124 1.38203613 0.00302124 2.79199219 0.00610352 C23.04966754 0.29966754 23.04966754 0.29966754 27.0625 4.3125 C27.19849841 7.1041974 27.27328577 9.87444861 27.30859375 12.66796875 C27.34159811 14.42383187 27.37480839 16.17969113 27.40820312 17.93554688 C27.45513086 20.69747527 27.49941355 23.45939637 27.53930664 26.22143555 C27.70100626 46.1696982 27.70100626 46.1696982 32.37890625 65.4453125 C33.08695956 67.37930953 33.59482306 69.30817025 34.0625 71.3125 C32.13017179 72.17830287 30.19142806 73.02979941 28.25 73.875 C27.17105469 74.35066406 26.09210937 74.82632813 24.98046875 75.31640625 C22.0625 76.3125 22.0625 76.3125 19.0625 75.3125 C17.67578125 73.38671875 17.67578125 73.38671875 16.375 71 C15.93800781 70.22011719 15.50101563 69.44023438 15.05078125 68.63671875 C14.0625 66.3125 14.0625 66.3125 14.0625 62.3125 C13.4025 62.3125 12.7425 62.3125 12.0625 62.3125 C11.835625 63.034375 11.60875 63.75625 11.375 64.5 C8.76900144 70.08428262 4.63926048 72.99650418 -0.9375 75.3125 C-3.66846514 75.62372909 -6.09318002 75.79116771 -8.8125 75.75 C-9.52140381 75.74097656 -10.23030762 75.73195313 -10.96069336 75.72265625 C-18.84606105 75.46129293 -23.1790932 73.33721471 -28.6875 67.875 C-37.34777945 57.01496993 -37.17631467 42.52742676 -35.9375 29.3125 C-34.09209287 18.97166832 -28.9891958 10.89333545 -20.375 4.875 C-13.75813603 0.61349678 -7.68336611 -0.04512277 0 0 Z M-12.75 18.125 C-19.60526773 28.1141044 -18.52392427 41.59468443 -16.72265625 53.0703125 C-15.62320318 57.61034261 -14.67077417 59.49180396 -10.9375 62.3125 C-6.73557579 63.6876752 -4.83628948 63.72594316 -0.8125 61.875 C6.81375598 55.07768489 9.57819762 46.04613724 10.30102539 35.99609375 C10.35534101 32.67967454 10.32633979 29.37838725 10.25 26.0625 C10.23646484 24.92425781 10.22292969 23.78601563 10.20898438 22.61328125 C10.17410054 19.84583013 10.12509317 17.07943895 10.0625 14.3125 C1.29938604 11.22758891 -5.83509834 11.21009834 -12.75 18.125 Z"/>
<path transform="translate(662.25,605.6875)" fill="#000000" d="M0 0 C6.6370325 5.58114097 9.26413544 11.70193605 10.01132202 20.33013916 C10.09477415 23.66430404 10.08781414 26.98541994 10.04296875 30.3203125 C10.03872391 31.5269455 10.03447906 32.73357849 10.03010559 33.97677612 C10.01343155 37.79725293 9.9757995 41.617185 9.9375 45.4375 C9.92243863 48.041659 9.90875278 50.64582634 9.89648438 53.25 C9.86356484 59.60437373 9.81186022 65.95834479 9.75 72.3125 C3.81 72.3125 -2.13 72.3125 -8.25 72.3125 C-8.279729 69.89019043 -8.279729 69.89019043 -8.31005859 67.41894531 C-8.38607783 61.43278292 -8.47480128 55.44686477 -8.56738281 49.4609375 C-8.6056877 46.86918964 -8.64053787 44.27738834 -8.671875 41.68554688 C-8.71749217 37.96204517 -8.7754931 34.23891185 -8.8359375 30.515625 C-8.84748871 29.35508606 -8.85903992 28.19454712 -8.87094116 26.99884033 C-8.89081085 25.91802185 -8.91068054 24.83720337 -8.93115234 23.72363281 C-8.94447601 22.77321106 -8.95779968 21.82278931 -8.9715271 20.84356689 C-9.26330202 18.19159669 -9.8159854 16.55007126 -11.25 14.3125 C-14.47782476 12.69858762 -17.75076855 12.87427849 -21.25 13.3125 C-26.77165795 15.69439166 -28.72773533 19.40795477 -31.26953125 24.58203125 C-33.43405072 30.60991615 -33.43324801 36.97376807 -33.56640625 43.30859375 C-33.58718735 44.14213882 -33.60796844 44.9756839 -33.62937927 45.83448792 C-33.69427856 48.47291561 -33.75347978 51.11143491 -33.8125 53.75 C-33.85574206 55.54883724 -33.89935808 57.34766554 -33.94335938 59.14648438 C-34.0505953 63.53506415 -34.15011015 67.9237224 -34.25 72.3125 C-39.86 72.3125 -45.47 72.3125 -51.25 72.3125 C-51.26458252 71.06339844 -51.27916504 69.81429687 -51.29418945 68.52734375 C-51.35292742 63.81548895 -51.43014279 59.10407515 -51.51245117 54.39257812 C-51.54535039 52.36791229 -51.57348646 50.34316243 -51.59643555 48.31835938 C-51.68057222 26.66364283 -51.68057222 26.66364283 -58.25 6.3125 C-58.25 5.3225 -58.25 4.3325 -58.25 3.3125 C-56.69219668 2.63493118 -55.12849904 1.97090543 -53.5625 1.3125 C-52.25732422 0.755625 -52.25732422 0.755625 -50.92578125 0.1875 C-48.25 -0.6875 -48.25 -0.6875 -43.25 -0.6875 C-41.27 3.2725 -39.29 7.2325 -37.25 11.3125 C-36.30125 10.095625 -35.3525 8.87875 -34.375 7.625 C-26.21380061 -1.5097023 -11.53278079 -6.07775057 0 0 Z"/>
<path transform="translate(223,530)" fill="#000000" d="M0 0 C1.32 0.66 2.64 1.32 4 2 C4 59.42 4 116.84 4 176 C61.17358866 175.9603835 61.17358866 175.9603835 118.34716797 175.90991211 C129.38305664 175.90539551 129.38305664 175.90539551 134.54275513 175.90455627 C138.16100675 175.90362133 141.77924384 175.89986078 145.39749146 175.89442444 C150.00555731 175.88759207 154.61360185 175.88550387 159.2216723 175.88692772 C160.91735015 175.88662976 162.61302871 175.88463111 164.30870223 175.88078487 C166.59042159 175.87584767 168.87205699 175.87699654 171.15377808 175.87974548 C172.43507032 175.87882369 173.71636257 175.8779019 175.03648186 175.87695217 C178 176 178 176 180 177 C180 178.98 180 180.96 180 183 C119.94 183 59.88 183 -2 183 C-3.4924731 180.01505379 -3.13291003 177.30843779 -3.14044189 173.97741699 C-3.14341302 173.2461634 -3.14638414 172.51490981 -3.1494453 171.76149702 C-3.15815241 169.29866887 -3.15964222 166.83588922 -3.16113281 164.37304688 C-3.16575946 162.61247147 -3.17078391 160.85189707 -3.17617798 159.09132385 C-3.18931629 154.30013887 -3.19574939 149.5089679 -3.20018864 144.71776772 C-3.20311625 141.72769099 -3.20722039 138.73761812 -3.21169281 135.74754333 C-3.22536972 126.40153092 -3.23503619 117.05552729 -3.2388947 107.70950556 C-3.24338013 96.90311366 -3.26094966 86.09684795 -3.2898953 75.29049444 C-3.31146908 66.94823872 -3.32159662 58.60601863 -3.32293582 50.26373529 C-3.32398668 45.27590751 -3.32995416 40.28819832 -3.34775543 35.30039978 C-3.36416256 30.61203208 -3.36642772 25.92387306 -3.35761642 21.23548698 C-3.35684216 19.51088339 -3.36123963 17.78626891 -3.37107468 16.06169319 C-3.38367681 13.7150701 -3.37798249 11.36919943 -3.36749268 9.02258301 C-3.36895924 7.70701668 -3.3704258 6.39145035 -3.3719368 5.03601837 C-3.24919765 4.03413231 -3.12645851 3.03224625 -3 2 C-2.01 1.34 -1.02 0.68 0 0 Z"/>
<path transform="translate(731.75,605.6875)" fill="#000000" d="M0 0 C3.0896542 2.19840779 5.15383574 4.16825361 7.25 7.3125 C5.71583702 11.30132376 2.8252926 14.96033382 -0.75 17.3125 C-3.37447964 17.01157282 -4.55163302 16.47119359 -6.625 14.8125 C-9.43840941 12.82656394 -11.30742 12.44750314 -14.75 12.3125 C-18.32725379 13.23765184 -20.81109218 14.02857184 -23.046875 17.0859375 C-28.09062957 26.62521245 -28.17519396 39.07427099 -25.43359375 49.37890625 C-23.79742236 54.0069339 -21.96379626 56.63799803 -17.6640625 59.02734375 C-13.24719847 60.81502618 -9.42021667 60.2383402 -4.8125 59.5 C-3.64364258 59.33661133 -3.64364258 59.33661133 -2.45117188 59.16992188 C-0.5482601 58.90141285 1.35130627 58.60937112 3.25 58.3125 C3.75833591 59.55913331 4.25631145 60.80999387 4.75 62.0625 C5.0284375 62.75859375 5.306875 63.4546875 5.59375 64.171875 C6.25 66.3125 6.25 66.3125 6.25 70.3125 C-4.08441546 74.88139946 -19.03437976 75.5658535 -29.6875 71.625 C-33.39635765 69.77383028 -36.08893049 67.52143676 -38.75 64.3125 C-39.45125 63.590625 -40.1525 62.86875 -40.875 62.125 C-47.66370183 51.94194725 -47.85372122 37.4814518 -45.5625 25.8125 C-43.25961493 16.6735732 -39.56963644 8.22936835 -31.50390625 2.80078125 C-22.58119598 -2.31256174 -9.70136888 -4.55670356 0 0 Z"/>
</svg>